<svg preserveAspectRatio="none" width="100%" height="100%" overflow="visible" style="display: block;" viewBox="0 0 364.938 266" fill="none" xmlns="http://www.w3.org/2000/svg">
<g id="Group 9">
<path id="Vector" d="M26.3037 255.75C27.266 254.083 29.6716 254.083 30.6338 255.75L34.0977 261.75C35.0599 263.417 33.8571 265.5 31.9326 265.5H25.0049C23.0804 265.5 21.8776 263.417 22.8398 261.75L26.3037 255.75ZM25.0049 232.5H31.9326C33.8571 232.5 35.0599 234.583 34.0977 236.25L30.6338 242.25C29.6716 243.917 27.266 243.917 26.3037 242.25L22.8398 236.25C21.8776 234.583 23.0804 232.5 25.0049 232.5Z" fill="var(--fill-0, #16161A)" stroke="var(--stroke-0, #16161A)"/>
<path id="Vector_2" d="M338.634 255.75C337.672 254.083 335.266 254.083 334.304 255.75L330.84 261.75C329.878 263.417 331.08 265.5 333.005 265.5H339.933C341.857 265.5 343.06 263.417 342.098 261.75L338.634 255.75ZM339.933 232.5H333.005C331.08 232.5 329.878 234.583 330.84 236.25L334.304 242.25C335.266 243.917 337.672 243.917 338.634 242.25L342.098 236.25C343.06 234.583 341.857 232.5 339.933 232.5Z" fill="var(--fill-0, #16161A)" stroke="var(--stroke-0, #16161A)"/>
<path id="Vector_3" d="M71.3037 197.75C72.266 196.083 74.6716 196.083 75.6338 197.75L79.0977 203.75C80.0599 205.417 78.8571 207.5 76.9326 207.5H70.0049C68.0804 207.5 66.8776 205.417 67.8398 203.75L71.3037 197.75ZM70.0049 174.5H76.9326C78.8571 174.5 80.0599 176.583 79.0977 178.25L75.6338 184.25C74.6716 185.917 72.266 185.917 71.3037 184.25L67.8398 178.25C66.8776 176.583 68.0804 174.5 70.0049 174.5Z" fill="var(--fill-0, #16161A)" stroke="var(--stroke-0, #16161A)"/>
<path id="Vector_4" d="M349.634 197.75C348.672 196.083 346.266 196.083 345.304 197.75L341.84 203.75C340.878 205.417 342.08 207.5 344.005 207.5H350.933C352.857 207.5 354.06 205.417 353.098 203.75L349.634 197.75ZM350.933 174.5H344.005C342.08 174.5 340.878 176.583 341.84 178.25L345.304 184.25C346.266 185.917 348.672 185.917 349.634 184.25L353.098 178.25C354.06 176.583 352.857 174.5 350.933 174.5Z" fill="var(--fill-0, #16161A)" stroke="var(--stroke-0, #16161A)"/>
<path id="Vector_5" d="M116.304 139.75C117.266 138.083 119.672 138.083 120.634 139.75L124.098 145.75C125.06 147.417 123.857 149.5 121.933 149.5H115.005C113.08 149.5 111.878 147.417 112.84 145.75L116.304 139.75ZM115.005 116.5H121.933C123.857 116.5 125.06 118.583 124.098 120.25L120.634 126.25C119.672 127.917 117.266 127.917 116.304 126.25L112.84 120.25C111.878 118.583 113.08 116.5 115.005 116.5Z" fill="var(--fill-0, #16161A)" stroke="var(--stroke-0, #16161A)"/>
<path id="Vector_6" d="M355.634 139.75C354.672 138.083 352.266 138.083 351.304 139.75L347.84 145.75C346.878 147.417 348.08 149.5 350.005 149.5H356.933C358.857 149.5 360.06 147.417 359.098 145.75L355.634 139.75ZM356.933 116.5H350.005C348.08 116.5 346.878 118.583 347.84 120.25L351.304 126.25C352.266 127.917 354.672 127.917 355.634 126.25L359.098 120.25C360.06 118.583 358.857 116.5 356.933 116.5Z" fill="var(--fill-0, #16161A)" stroke="var(--stroke-0, #16161A)"/>
<path id="Vector_7" d="M60.3037 81.75C61.266 80.0834 63.6716 80.0834 64.6338 81.75L68.0977 87.75C69.0599 89.4167 67.8571 91.5 65.9326 91.5H59.0049C57.0804 91.5 55.8776 89.4167 56.8398 87.75L60.3037 81.75ZM59.0049 58.5H65.9326C67.8571 58.5 69.0599 60.5833 68.0977 62.25L64.6338 68.25C63.6716 69.9166 61.266 69.9166 60.3037 68.25L56.8398 62.25C55.8776 60.5833 57.0804 58.5 59.0049 58.5Z" fill="var(--fill-0, #16161A)" stroke="var(--stroke-0, #16161A)"/>
<path id="Vector_8" d="M286.634 81.75C285.672 80.0834 283.266 80.0834 282.304 81.75L278.84 87.75C277.878 89.4167 279.08 91.5 281.005 91.5H287.933C289.857 91.5 291.06 89.4167 290.098 87.75L286.634 81.75ZM287.933 58.5H281.005C279.08 58.5 277.878 60.5833 278.84 62.25L282.304 68.25C283.266 69.9166 285.672 69.9166 286.634 68.25L290.098 62.25C291.06 60.5833 289.857 58.5 287.933 58.5Z" fill="var(--fill-0, #16161A)" stroke="var(--stroke-0, #16161A)"/>
<path id="Vector_9" d="M4.30371 23.75C5.266 22.0834 7.67156 22.0834 8.63379 23.75L12.0977 29.75C13.0599 31.4167 11.8571 33.5 9.93262 33.5H3.00488C1.08038 33.5 -0.122406 31.4167 0.839844 29.75L4.30371 23.75ZM3.00488 0.5H9.93262C11.8571 0.5 13.0599 2.58333 12.0977 4.25L8.63379 10.25C7.67155 11.9166 5.26599 11.9166 4.30371 10.25L0.839844 4.25C-0.122407 2.58333 1.08038 0.5 3.00488 0.5Z" fill="var(--fill-0, #16161A)" stroke="var(--stroke-0, #16161A)"/>
<path id="Vector_10" d="M360.634 23.75C359.672 22.0834 357.266 22.0834 356.304 23.75L352.84 29.75C351.878 31.4167 353.08 33.5 355.005 33.5H361.933C363.857 33.5 365.06 31.4167 364.098 29.75L360.634 23.75ZM361.933 0.5H355.005C353.08 0.5 351.878 2.58333 352.84 4.25L356.304 10.25C357.266 11.9166 359.672 11.9166 360.634 10.25L364.098 4.25C365.06 2.58333 363.857 0.5 361.933 0.5Z" fill="var(--fill-0, #16161A)" stroke="var(--stroke-0, #16161A)"/>
</g>
</svg>
